<?xml version="1.0" encoding="UTF-8"?>
<svg id="Layer_2" data-name="Layer 2" xmlns="http://www.w3.org/2000/svg" viewBox="0 0 5376 3056.31">
  <defs>
    <style>
      .cls-1 {
        fill: #fff;
      }

      .cls-2 {
        fill: #f9f930;
      }

      .cls-3 {
        fill: #302e77;
      }
    </style>
  </defs>
  <g id="Layer_2-2" data-name="Layer 2">
    <g>
      <g>
        <path class="cls-3" d="M5298.84,1528.17c0,800.07-1171.22,1450.98-2610.84,1450.98S77.16,2328.24,77.16,1528.17,1248.38,77.16,2688,77.16s2610.84,650.92,2610.84,1451.01Z"/>
        <path class="cls-2" d="M4580.34,441.24C4074.24,156.7,3402.2,0,2688,0S1301.76,156.7,795.67,441.24C282.57,729.72,0,1115.73,0,1528.17s282.57,798.44,795.67,1086.91c506.09,284.53,1178.14,441.23,1892.33,441.23s1386.24-156.7,1892.32-441.23c513.1-288.47,795.68-674.49,795.68-1086.91s-282.58-798.45-795.66-1086.93ZM2688,2979.15c-1439.62,0-2610.84-650.91-2610.84-1450.98S1248.38,77.16,2688,77.16s2610.84,650.92,2610.84,1451.01-1171.22,1450.98-2610.84,1450.98Z"/>
      </g>
      <path class="cls-1" d="M2704.29,2900.63c-665.55,0-1291.68-141.2-1763.03-397.58-476.3-259.08-738.61-605.3-738.61-974.88s262.31-715.82,738.61-974.9c471.35-256.39,1097.46-397.58,1763.03-397.58s1291.69,141.2,1763.04,397.58c476.3,259.08,738.61,605.31,738.61,974.9s-262.31,715.8-738.61,974.88c-471.35,256.38-1097.47,397.58-1763.04,397.58ZM2704.29,207.12c-1351.04,0-2450.19,592.62-2450.19,1321.04s1099.16,1321.02,2450.19,1321.02,2450.21-592.61,2450.21-1321.02S4055.34,207.12,2704.29,207.12Z"/>
      <polygon class="cls-2" points="3322.51 916.29 3322.51 1088.88 3067.61 1088.88 3067.61 2036.18 2833.68 2036.18 2833.68 1088.88 2599.88 1088.88 2599.88 916.29 3322.51 916.29"/>
      <polygon class="cls-2" points="2540.33 916.29 2540.33 2036.18 2306.02 2036.18 2306.02 1455.27 2057.04 1916.06 1992.22 2036.18 1876.61 2036.18 1820.66 1919.79 1576.96 1412.32 1576.96 2036.18 1395.88 2036.18 1395.88 916.29 1576.96 916.29 1946.82 1686.37 2306.02 1021.49 2362.86 916.29 2540.33 916.29"/>
      <polygon class="cls-2" points="4045.26 1844.43 4045.26 2036.18 3404.94 2036.18 3404.94 916.29 3638.88 916.29 3638.88 1844.43 4045.26 1844.43"/>
      <path class="cls-1" d="M2796.27,885.78c-12.57,0-23.57-9.24-25.42-22.05-9.62-66.63-35.1-112.33-75.73-135.83-73.38-42.45-175.8-2.54-176.82-2.12-13.16,5.24-28.13-1.15-33.42-14.34-5.26-13.17,1.11-28.11,14.27-33.41,5.1-2.06,126.21-49.67,221.44,5.17,55.13,31.75,89.17,90.02,101.18,173.18,2.03,14.06-7.72,27.1-21.78,29.13-1.26.18-2.49.27-3.72.27Z"/>
      <path class="cls-1" d="M2891.17,892.21c-15.31,0-28.89-10.98-31.62-26.59-13.98-79.44-48.63-138.61-103-175.85-101.24-69.34-240.12-42.9-241.5-42.62-17.42,3.4-34.34-7.85-37.8-25.24-3.48-17.39,7.76-34.3,25.14-37.81,6.74-1.35,166.12-32.25,290.05,52.31,69.43,47.37,113.31,120.74,130.43,218.06,3.08,17.49-8.6,34.16-26.09,37.24-1.88.33-3.77.49-5.61.49Z"/>
      <path class="cls-1" d="M3003.37,898.64c-.26,0-.53,0-.79,0-21.3-.43-38.23-18.05-37.79-39.35,2.03-101.36-27.06-178.4-86.51-228.98-129.14-109.89-360.27-69.16-362.59-68.74-20.9,3.79-41.07-10.05-44.9-31.01-3.83-20.96,10.05-41.06,31.01-44.89,10.96-1.98,269.79-47.45,426.49,85.88,77.94,66.32,116.17,163.65,113.63,289.3-.41,21.04-17.61,37.8-38.56,37.8Z"/>
      <path class="cls-1" d="M3187.46,905.07c-2.05,0-4.12-.14-6.19-.43-24.63-3.38-41.85-26.1-38.47-50.73,16.25-118.12-7.85-208.44-73.67-276.12-168.52-173.24-551.63-133.52-555.46-133.1-24.7,2.66-46.95-15.13-49.65-39.82-2.73-24.7,15.07-46.93,39.77-49.66,17.48-1.93,430.36-45.02,629.7,159.64,85.36,87.66,118.51,205.86,98.5,351.33-3.1,22.54-22.41,38.88-44.53,38.88Z"/>
      <g>
        <path class="cls-1" d="M1493.12,2427.48l35.51,6.79c-4.77,15.41-12.16,26.84-22.2,34.3s-22.25,11.2-36.64,11.2c-19.98,0-35.4-6.23-46.27-18.68-12.84-14.47-19.25-34.73-19.25-60.76s6.46-46.2,19.38-61.64c10.96-13.02,25.12-19.53,42.49-19.53,19.33,0,34.47,6.64,45.43,19.96,12.62,15.23,18.92,37.7,18.92,67.4l-.16,4.63h-89.48c.21,12.18,3.14,21.6,8.79,28.27,5.65,6.67,12.46,10,20.45,10,11.51,0,19.18-7.31,23.02-21.95ZM1494.97,2386.33c-.31-11.99-3.05-21-8.22-27.04-5.17-6.04-11.32-9.07-18.46-9.07-7.54,0-13.9,3.14-19.07,9.43-5.27,6.38-7.86,15.27-7.76,26.68h53.5Z"/>
        <path class="cls-1" d="M1596.84,2476.16l-54.73-153.38h37.39l25.5,78.29,7.43,26.14,7.55-26.14,25.87-78.29h36.6l-53.83,153.38h-31.79Z"/>
        <path class="cls-1" d="M1782.79,2427.48l35.51,6.79c-4.77,15.41-12.16,26.84-22.2,34.3s-22.25,11.2-36.64,11.2c-19.98,0-35.4-6.23-46.27-18.68-12.84-14.47-19.25-34.73-19.25-60.76s6.46-46.2,19.38-61.64c10.96-13.02,25.12-19.53,42.49-19.53,19.33,0,34.47,6.64,45.43,19.96,12.62,15.23,18.92,37.7,18.92,67.4l-.16,4.63h-89.48c.21,12.18,3.14,21.6,8.79,28.27,5.65,6.67,12.46,10,20.45,10,11.51,0,19.18-7.31,23.02-21.95ZM1784.65,2386.33c-.31-11.99-3.05-21-8.22-27.04-5.17-6.04-11.32-9.07-18.46-9.07-7.54,0-13.9,3.14-19.07,9.43-5.27,6.38-7.86,15.27-7.76,26.68h53.5Z"/>
        <path class="cls-1" d="M1883.43,2476.16h-35.82v-153.38h33.19v21.82c5.68-10.21,10.78-17,15.27-20.37,4.5-3.37,9.7-5.05,15.59-5.05,8.16,0,15.98,2.55,23.42,7.65l-11.16,35.38c-5.89-4.42-11.47-6.63-16.75-6.63-4.96,0-9.33,1.71-13.11,5.12-3.77,3.43-6.49,9.62-8.14,18.59-1.66,8.97-2.48,25.44-2.48,49.46v47.42Z"/>
        <path class="cls-1" d="M1933.36,2322.78h38.15l32.18,108.94,31.55-108.94h37.07l-47.65,147.61-9.14,28.74c-4.04,10.79-8.06,18.69-12.06,23.69-3.97,5.01-9.04,8.87-15.22,11.55-6.15,2.7-13.74,4.04-22.74,4.04-6.94,0-13.72-.82-20.35-2.45l-3.1-31.77c5.58,1.26,10.6,1.87,15.05,1.87,6.83,0,12.44-2.11,16.83-6.33,4.4-4.23,8.01-11.92,10.83-23.07l-51.39-153.87Z"/>
        <path class="cls-1" d="M2086.88,2397.3c0-15.06,3.2-28.75,9.62-41.09,6.41-12.35,14.78-21.6,25.12-27.78,10.34-6.18,21.97-9.26,34.89-9.26,21.71,0,38.77,7.92,51.18,23.8,12.41,15.86,18.61,34.41,18.61,55.62,0,15.82-3.24,30.1-9.7,42.84-6.47,12.72-14.95,22.3-25.43,28.71-10.5,6.42-22,9.63-34.5,9.63-20.06,0-36.71-7.15-49.93-21.43-13.24-14.27-19.86-34.63-19.86-61.05ZM2123.47,2399.48c0,15.55,3.27,27.3,9.8,35.27,6.53,7.97,14.41,11.96,23.62,11.96s16.73-4.01,23.16-12.02c6.43-8.03,9.65-19.86,9.65-35.5s-3.27-26.89-9.8-34.9c-6.53-8.03-14.35-12.03-23.47-12.03s-16.77,4.01-23.23,12.03c-6.48,8.01-9.72,19.74-9.72,35.2Z"/>
        <path class="cls-1" d="M2377.18,2476.16h-35.82v-78.37c0-15.71-.68-26.17-2.02-31.39-1.34-5.2-3.84-9.21-7.51-11.99-3.68-2.8-7.84-4.19-12.48-4.19-6,0-11.43,1.81-16.29,5.43s-8.28,8.6-10.24,14.96c-1.96,6.37-2.94,18.37-2.94,36.01v69.55h-35.83v-153.38h33.19v22.39c5.89-8.67,12.53-15.17,19.92-19.5,7.4-4.33,15.59-6.49,24.58-6.49,10.45,0,19.25,2.52,26.45,7.59,7.18,5.06,12.14,11.57,14.88,19.52s4.11,19.44,4.11,34.47v95.41Z"/>
        <path class="cls-1" d="M2491.93,2427.48l35.5,6.79c-4.76,15.41-12.16,26.84-22.2,34.3-10.03,7.46-22.24,11.2-36.63,11.2-19.98,0-35.4-6.23-46.27-18.68-12.84-14.47-19.25-34.73-19.25-60.76s6.46-46.2,19.38-61.64c10.96-13.02,25.12-19.53,42.49-19.53,19.34,0,34.49,6.64,45.44,19.96,12.61,15.23,18.93,37.7,18.93,67.4l-.16,4.63h-89.47c.2,12.18,3.13,21.6,8.78,28.27,5.65,6.67,12.47,10,20.46,10,11.5,0,19.18-7.31,23.02-21.95ZM2493.79,2386.33c-.31-11.99-3.05-21-8.21-27.04-5.17-6.04-11.33-9.07-18.46-9.07-7.55,0-13.9,3.14-19.08,9.43-5.26,6.38-7.85,15.27-7.75,26.68h53.5Z"/>
        <path class="cls-1" d="M2709.19,2427.48l35.5,6.79c-4.76,15.41-12.16,26.84-22.2,34.3-10.03,7.46-22.24,11.2-36.63,11.2-19.98,0-35.4-6.23-46.27-18.68-12.84-14.47-19.25-34.73-19.25-60.76s6.46-46.2,19.38-61.64c10.96-13.02,25.12-19.53,42.49-19.53,19.34,0,34.49,6.64,45.44,19.96,12.61,15.23,18.93,37.7,18.93,67.4l-.16,4.63h-89.47c.2,12.18,3.13,21.6,8.78,28.27,5.65,6.67,12.47,10,20.46,10,11.5,0,19.18-7.31,23.02-21.95ZM2711.05,2386.33c-.31-11.99-3.05-21-8.21-27.04-5.17-6.04-11.33-9.07-18.46-9.07-7.55,0-13.9,3.14-19.08,9.43-5.26,6.38-7.85,15.27-7.75,26.68h53.5Z"/>
        <path class="cls-1" d="M2812.91,2476.16l-54.73-153.38h37.39l25.51,78.29,7.43,26.14,7.55-26.14,25.87-78.29h36.6l-53.83,153.38h-31.79Z"/>
        <path class="cls-1" d="M2998.86,2427.48l35.5,6.79c-4.76,15.41-12.16,26.84-22.2,34.3-10.03,7.46-22.24,11.2-36.63,11.2-19.98,0-35.4-6.23-46.27-18.68-12.84-14.47-19.25-34.73-19.25-60.76s6.46-46.2,19.38-61.64c10.96-13.02,25.12-19.53,42.49-19.53,19.34,0,34.49,6.64,45.44,19.96,12.61,15.23,18.93,37.7,18.93,67.4l-.16,4.63h-89.47c.2,12.18,3.13,21.6,8.78,28.27,5.65,6.67,12.47,10,20.46,10,11.5,0,19.18-7.31,23.02-21.95ZM3000.72,2386.33c-.31-11.99-3.05-21-8.21-27.04-5.17-6.04-11.33-9.07-18.46-9.07-7.55,0-13.9,3.14-19.08,9.43-5.26,6.38-7.85,15.27-7.75,26.68h53.5Z"/>
        <path class="cls-1" d="M3099.5,2476.16h-35.82v-153.38h33.18v21.82c5.69-10.21,10.78-17,15.27-20.37,4.5-3.37,9.7-5.05,15.59-5.05,8.16,0,15.98,2.55,23.41,7.65l-11.16,35.38c-5.89-4.42-11.47-6.63-16.74-6.63-4.96,0-9.33,1.71-13.1,5.12-3.78,3.43-6.49,9.62-8.15,18.59-1.65,8.97-2.47,25.44-2.47,49.46v47.42Z"/>
        <path class="cls-1" d="M3149.43,2322.78h38.14l32.18,108.94,31.55-108.94h37.07l-47.64,147.61-9.16,28.74c-4.04,10.79-8.05,18.69-12.04,23.69-3.98,5.01-9.06,8.87-15.22,11.55-6.15,2.7-13.74,4.04-22.76,4.04-6.93,0-13.71-.82-20.35-2.45l-3.1-31.77c5.59,1.26,10.61,1.87,15.06,1.87,6.82,0,12.43-2.11,16.83-6.33,4.4-4.23,8-11.92,10.81-23.07l-51.38-153.87Z"/>
        <path class="cls-1" d="M3336.83,2476.16l-43.03-153.38h34.74l25.34,100.52,23.44-100.52h34.21l22.53,100.52,26.12-100.52h35.2l-43.73,153.38h-34.07l-23.37-98.64-23,98.64h-34.39Z"/>
        <path class="cls-1" d="M3549.67,2264.43v77.7c5.69-7.7,11.97-13.45,18.84-17.26,6.87-3.81,14.34-5.7,22.41-5.7,10.75,0,19.76,2.65,26.99,7.95,7.23,5.3,12.41,12.81,15.51,22.54,2.26,7.13,3.4,19.28,3.4,36.43v90.06h-35.82v-81.12c0-18.8-1.29-30.56-3.87-35.28-3.6-6.37-9.73-9.54-18.4-9.54-9.17,0-16.3,3.45-21.41,10.34-5.1,6.89-7.65,19.79-7.65,38.68v76.92h-35.82v-211.73h35.82Z"/>
        <path class="cls-1" d="M3751.58,2427.48l35.5,6.79c-4.76,15.41-12.16,26.84-22.2,34.3-10.03,7.46-22.24,11.2-36.63,11.2-19.98,0-35.4-6.23-46.27-18.68-12.84-14.47-19.25-34.73-19.25-60.76s6.46-46.2,19.38-61.64c10.96-13.02,25.12-19.53,42.49-19.53,19.34,0,34.49,6.64,45.44,19.96,12.61,15.23,18.93,37.7,18.93,67.4l-.16,4.63h-89.47c.2,12.18,3.13,21.6,8.78,28.27,5.65,6.67,12.47,10,20.46,10,11.5,0,19.18-7.31,23.02-21.95ZM3753.44,2386.33c-.31-11.99-3.05-21-8.21-27.04-5.17-6.04-11.33-9.07-18.46-9.07-7.55,0-13.9,3.14-19.08,9.43-5.26,6.38-7.85,15.27-7.75,26.68h53.5Z"/>
        <path class="cls-1" d="M3852.21,2476.16h-35.82v-153.38h33.18v21.82c5.69-10.21,10.78-17,15.27-20.37,4.5-3.37,9.7-5.05,15.59-5.05,8.16,0,15.98,2.55,23.41,7.65l-11.16,35.38c-5.89-4.42-11.47-6.63-16.74-6.63-4.96,0-9.33,1.71-13.1,5.12-3.78,3.43-6.49,9.62-8.15,18.59-1.65,8.97-2.47,25.44-2.47,49.46v47.42Z"/>
        <path class="cls-1" d="M3997.67,2427.48l35.5,6.79c-4.76,15.41-12.16,26.84-22.2,34.3-10.03,7.46-22.24,11.2-36.63,11.2-19.98,0-35.4-6.23-46.27-18.68-12.84-14.47-19.25-34.73-19.25-60.76s6.46-46.2,19.38-61.64c10.96-13.02,25.12-19.53,42.49-19.53,19.34,0,34.49,6.64,45.44,19.96,12.61,15.23,18.93,37.7,18.93,67.4l-.16,4.63h-89.47c.2,12.18,3.13,21.6,8.78,28.27,5.65,6.67,12.47,10,20.46,10,11.5,0,19.18-7.31,23.02-21.95ZM3999.53,2386.33c-.31-11.99-3.05-21-8.21-27.04-5.17-6.04-11.33-9.07-18.46-9.07-7.55,0-13.9,3.14-19.08,9.43-5.26,6.38-7.85,15.27-7.75,26.68h53.5Z"/>
      </g>
    </g>
  </g>
</svg>